STARTFONT 2.1
COMMENT +
COMMENT  Copyright (c) 1989, 1991 Adobe Systems Incorporated.
COMMENT  Copyright 1996, 1997 BIZNET Poland, Inc. All Rights Reserved.
COMMENT -
FONT -BIZNET-Chimera-Regular-I-Normal--19-180-75-75-P-100-ISO8859-2
SIZE 18 75 75
FONTBOUNDINGBOX 18 18 -3 -4
STARTPROPERTIES 24
FOUNDRY "BIZNET"
FAMILY_NAME "BIZNET Chimera"
WEIGHT_NAME "Regular"
SLANT "I"
SETWIDTH_NAME "Normal"
ADD_STYLE_NAME ""
PIXEL_SIZE 19
POINT_SIZE 180
RESOLUTION_X 75
RESOLUTION_Y 75
SPACING "P"
AVERAGE_WIDTH 100
CHARSET_REGISTRY "ISO8859"
CHARSET_ENCODING "2"
CAP_HEIGHT 13
X_HEIGHT 9
FONT_ASCENT 14
FONT_DESCENT 4
FACE_NAME "BIZNET Chimera Italic"
DEFAULT_CHAR 32
RELATIVE_SETWIDTH 50
CHARSET_COLLECTIONS "ASCII ISO8859-2"
COPYRIGHT "Copyright (c) 1989, 1991 Adobe Systems Incorporated.  All rights reserved. Copyright (c) 1996 BIZNET Poland, Inc. All Rights Reserved."
NOTICE "The name "BIZNET" is a registered trademark of BIZNET Poland, Inc."
ENDPROPERTIES
CHARS 189
STARTCHAR exclam
ENCODING 33
SWIDTH 240 0
DWIDTH 5 0
BBX 4 13 0 0
BITMAP
30
30
30
20
60
60
60
40
40
00
00
C0
C0
ENDCHAR
STARTCHAR quotedbl
ENCODING 34
SWIDTH 402 0
DWIDTH 7 0
BBX 5 5 2 8
BITMAP
D8
D8
90
90
90
ENDCHAR
STARTCHAR numbersign
ENCODING 35
SWIDTH 530 0
DWIDTH 10 0
BBX 9 12 0 0
BITMAP
0900
0900
0900
3F80
1200
1200
2400
FF00
2400
4800
4800
4800
ENDCHAR
STARTCHAR dollar
ENCODING 36
SWIDTH 530 0
DWIDTH 10 0
BBX 9 15 0 -1
BITMAP
0200
0F00
3580
6580
6400
6800
7800
3E00
0F00
0B00
1300
D300
D600
7800
2000
ENDCHAR
STARTCHAR percent
ENCODING 37
SWIDTH 826 0
DWIDTH 15 0
BBX 13 13 1 0
BITMAP
3820
47C0
C440
8480
8D00
8900
7270
0488
0588
0908
1118
1110
20E0
ENDCHAR
STARTCHAR ampersand
ENCODING 38
SWIDTH 725 0
DWIDTH 14 0
BBX 12 13 1 0
BITMAP
0F00
1980
3180
3100
1200
3C00
6C30
C630
C220
C340
C180
61C0
3E70
ENDCHAR
STARTCHAR quoteright
ENCODING 39
SWIDTH 216 0
DWIDTH 5 0
BBX 3 5 1 8
BITMAP
60
60
40
40
80
ENDCHAR
STARTCHAR parenleft
ENCODING 40
SWIDTH 350 0
DWIDTH 6 0
BBX 6 16 1 -3
BITMAP
0C
10
20
20
40
40
40
C0
80
80
80
80
80
80
40
20
ENDCHAR
STARTCHAR parenright
ENCODING 41
SWIDTH 350 0
DWIDTH 6 0
BBX 6 16 0 -3
BITMAP
10
08
04
04
04
04
04
04
0C
08
08
08
10
10
20
C0
ENDCHAR
STARTCHAR asterisk
ENCODING 42
SWIDTH 412 0
DWIDTH 9 0
BBX 8 8 0 5
BITMAP
08
49
2A
1C
38
54
92
10
ENDCHAR
STARTCHAR plus
ENCODING 43
SWIDTH 570 0
DWIDTH 10 0
BBX 9 9 0 0
BITMAP
0800
0800
0800
0800
FF80
0800
0800
0800
0800
ENDCHAR
STARTCHAR comma
ENCODING 44
SWIDTH 265 0
DWIDTH 5 0
BBX 3 5 -1 -3
BITMAP
60
60
40
40
80
ENDCHAR
STARTCHAR minus
ENCODING 45
SWIDTH 570 0
DWIDTH 11 0
BBX 9 1 2 4
BITMAP
FF80
ENDCHAR
STARTCHAR period
ENCODING 46
SWIDTH 265 0
DWIDTH 5 0
BBX 2 2 0 0
BITMAP
C0
C0
ENDCHAR
STARTCHAR slash
ENCODING 47
SWIDTH 270 0
DWIDTH 5 0
BBX 4 13 0 0
BITMAP
10
10
10
20
20
20
40
40
40
40
80
80
80
ENDCHAR
STARTCHAR zero
ENCODING 48
SWIDTH 530 0
DWIDTH 10 0
BBX 9 13 0 0
BITMAP
0E00
1100
2180
6180
6180
6180
C180
C300
C300
C300
C200
4400
3800
ENDCHAR
STARTCHAR one
ENCODING 49
SWIDTH 530 0
DWIDTH 10 0
BBX 6 13 1 0
BITMAP
0C
3C
0C
0C
18
18
18
18
30
30
30
30
FC
ENDCHAR
STARTCHAR two
ENCODING 50
SWIDTH 530 0
DWIDTH 10 0
BBX 9 13 0 0
BITMAP
1F00
3380
6180
6180
0180
0300
0600
1800
3000
6000
C100
FF00
FF00
ENDCHAR
STARTCHAR three
ENCODING 51
SWIDTH 530 0
DWIDTH 10 0
BBX 9 13 0 0
BITMAP
1F00
3180
6180
6180
0300
1E00
0700
0300
0300
0300
C300
C600
7C00
ENDCHAR
STARTCHAR four
ENCODING 52
SWIDTH 530 0
DWIDTH 10 0
BBX 9 13 0 0
BITMAP
0C00
0C00
1900
1B00
3300
2300
6600
4600
8600
FF80
0C00
0C00
3F00
ENDCHAR
STARTCHAR five
ENCODING 53
SWIDTH 530 0
DWIDTH 10 0
BBX 9 13 0 0
BITMAP
3F80
3F00
2000
2000
4000
7E00
4700
0300
0300
0300
C300
C600
7800
ENDCHAR
STARTCHAR six
ENCODING 54
SWIDTH 530 0
DWIDTH 10 0
BBX 9 13 0 0
BITMAP
0F00
1180
2180
6000
6000
7E00
E300
C300
C300
C300
C300
4600
3C00
ENDCHAR
STARTCHAR seven
ENCODING 55
SWIDTH 530 0
DWIDTH 10 0
BBX 8 13 1 0
BITMAP
FF
FF
86
04
08
18
30
30
60
60
C0
C0
C0
ENDCHAR
STARTCHAR eight
ENCODING 56
SWIDTH 530 0
DWIDTH 10 0
BBX 9 13 0 0
BITMAP
1F00
3180
6180
6180
6180
3300
3E00
6600
C300
C300
C300
C600
7C00
ENDCHAR
STARTCHAR nine
ENCODING 57
SWIDTH 530 0
DWIDTH 10 0
BBX 9 13 0 0
BITMAP
1E00
3100
6180
6180
6180
6180
6380
3F00
0300
0300
C200
C400
7800
ENDCHAR
STARTCHAR colon
ENCODING 58
SWIDTH 265 0
DWIDTH 5 0
BBX 3 9 0 0
BITMAP
60
60
00
00
00
00
00
C0
C0
ENDCHAR
STARTCHAR semicolon
ENCODING 59
SWIDTH 265 0
DWIDTH 5 0
BBX 4 12 -1 -3
BITMAP
30
30
00
00
00
00
00
60
60
40
40
80
ENDCHAR
STARTCHAR less
ENCODING 60
SWIDTH 570 0
DWIDTH 10 0
BBX 9 9 0 0
BITMAP
0080
0300
0C00
3000
C000
3000
0C00
0300
0080
ENDCHAR
STARTCHAR equal
ENCODING 61
SWIDTH 570 0
DWIDTH 10 0
BBX 9 5 0 2
BITMAP
FF80
0000
0000
0000
FF80
ENDCHAR
STARTCHAR greater
ENCODING 62
SWIDTH 570 0
DWIDTH 10 0
BBX 9 9 0 0
BITMAP
8000
6000
1800
0600
0180
0600
1800
6000
8000
ENDCHAR
STARTCHAR question
ENCODING 63
SWIDTH 425 0
DWIDTH 9 0
BBX 7 13 1 0
BITMAP
3C
46
C6
0C
18
60
C0
C0
70
00
00
C0
C0
ENDCHAR
STARTCHAR at
ENCODING 64
SWIDTH 794 0
DWIDTH 14 0
BBX 13 13 0 0
BITMAP
0780
1860
2010
43D0
4CC8
88C8
9988
9988
9A90
4CE0
4000
3060
0F80
ENDCHAR
STARTCHAR A
ENCODING 65
SWIDTH 624 0
DWIDTH 12 0
BBX 12 13 -1 0
BITMAP
0180
0380
0380
0580
04C0
08C0
08C0
1FC0
10C0
2060
2060
4060
E0F0
ENDCHAR
STARTCHAR B
ENCODING 66
SWIDTH 632 0
DWIDTH 12 0
BBX 11 13 0 0
BITMAP
3F80
18C0
1860
1860
3060
30C0
3F80
3180
60C0
60C0
60C0
6180
FF00
ENDCHAR
STARTCHAR C
ENCODING 67
SWIDTH 661 0
DWIDTH 13 0
BBX 11 13 1 0
BITMAP
07C0
1860
3020
6000
6000
C000
C000
C000
C000
C040
C0C0
6180
3E00
ENDCHAR
STARTCHAR D
ENCODING 68
SWIDTH 763 0
DWIDTH 14 0
BBX 13 13 0 0
BITMAP
3FE0
1830
1818
1818
3018
3018
3018
3018
6030
6030
6060
60C0
FF00
ENDCHAR
STARTCHAR E
ENCODING 69
SWIDTH 596 0
DWIDTH 11 0
BBX 11 13 0 0
BITMAP
3FE0
1860
1820
1800
3000
3080
3F80
3080
6000
6000
6080
6180
FF80
ENDCHAR
STARTCHAR F
ENCODING 70
SWIDTH 571 0
DWIDTH 11 0
BBX 11 13 0 0
BITMAP
3FE0
1860
1820
1800
3000
3080
3F80
3080
6000
6000
6000
6000
F000
ENDCHAR
STARTCHAR G
ENCODING 71
SWIDTH 709 0
DWIDTH 13 0
BBX 11 13 1 0
BITMAP
07C0
1860
3020
6000
6000
C000
C000
C1E0
C0C0
C0C0
C0C0
6180
3E00
ENDCHAR
STARTCHAR H
ENCODING 72
SWIDTH 775 0
DWIDTH 14 0
BBX 14 13 0 0
BITMAP
3C3C
1818
1818
1818
3030
3030
3FF0
3030
6060
6060
6060
6060
F0F0
ENDCHAR
STARTCHAR I
ENCODING 73
SWIDTH 345 0
DWIDTH 6 0
BBX 6 13 0 0
BITMAP
3C
18
18
18
30
30
30
30
60
60
60
60
F0
ENDCHAR
STARTCHAR J
ENCODING 74
SWIDTH 352 0
DWIDTH 6 0
BBX 8 16 -2 -3
BITMAP
0F
06
06
06
0C
0C
0C
0C
0C
18
18
18
18
18
30
E0
ENDCHAR
STARTCHAR K
ENCODING 75
SWIDTH 650 0
DWIDTH 12 0
BBX 12 13 0 0
BITMAP
3E70
1820
1840
1880
3100
3200
3C00
3600
6300
6380
6180
60C0
F0E0
ENDCHAR
STARTCHAR L
ENCODING 76
SWIDTH 565 0
DWIDTH 10 0
BBX 9 13 0 0
BITMAP
3C00
1800
1800
1800
3000
3000
3000
3000
6000
6000
6080
6180
FF80
ENDCHAR
STARTCHAR M
ENCODING 77
SWIDTH 920 0
DWIDTH 17 0
BBX 17 13 0 0
BITMAP
380780
180700
180B00
1C1B00
2C1600
2C2600
266600
264600
468C00
438C00
430C00
420C00
E01E00
ENDCHAR
STARTCHAR N
ENCODING 78
SWIDTH 763 0
DWIDTH 14 0
BBX 14 13 0 0
BITMAP
3C1C
1C08
1C08
1608
2610
2310
2310
2190
2190
40E0
40E0
4060
E060
ENDCHAR
STARTCHAR O
ENCODING 79
SWIDTH 753 0
DWIDTH 14 0
BBX 12 13 1 0
BITMAP
07C0
1860
3030
6030
6030
C030
C030
C030
C060
C060
C0C0
6180
3E00
ENDCHAR
STARTCHAR P
ENCODING 80
SWIDTH 614 0
DWIDTH 11 0
BBX 11 13 0 0
BITMAP
3F80
18C0
1860
1860
3060
30C0
3180
3E00
6000
6000
6000
6000
F000
ENDCHAR
STARTCHAR Q
ENCODING 81
SWIDTH 753 0
DWIDTH 14 0
BBX 12 17 1 -4
BITMAP
07C0
1860
3030
6030
6030
C030
C030
C030
C060
C060
C0C0
6180
3E00
0C00
0E00
0700
01C0
ENDCHAR
STARTCHAR R
ENCODING 82
SWIDTH 640 0
DWIDTH 12 0
BBX 11 13 0 0
BITMAP
3F80
18C0
1860
1860
3060
30C0
3F00
3300
6180
6180
6180
6180
F0C0
ENDCHAR
STARTCHAR S
ENCODING 83
SWIDTH 533 0
DWIDTH 10 0
BBX 10 13 0 0
BITMAP
0780
18C0
3040
3000
3800
1C00
0700
0380
0180
8180
C180
E300
3C00
ENDCHAR
STARTCHAR T
ENCODING 84
SWIDTH 606 0
DWIDTH 13 0
BBX 12 13 1 0
BITMAP
FFF0
C630
8610
0600
0C00
0C00
0C00
0C00
1800
1800
1800
1800
3C00
ENDCHAR
STARTCHAR U
ENCODING 85
SWIDTH 794 0
DWIDTH 14 0
BBX 13 13 1 0
BITMAP
7878
3030
3030
3030
6060
6060
6060
6060
C0C0
C0C0
C0C0
6180
3E00
ENDCHAR
STARTCHAR V
ENCODING 86
SWIDTH 637 0
DWIDTH 12 0
BBX 12 13 1 0
BITMAP
F070
6020
6040
6040
3080
3080
3100
3100
3200
1A00
1C00
1C00
1800
ENDCHAR
STARTCHAR W
ENCODING 87
SWIDTH 946 0
DWIDTH 18 0
BBX 18 13 1 0
BITMAP
F061C0
606080
60E080
60E100
616100
626200
323200
343400
343400
383800
383800
303000
303000
ENDCHAR
STARTCHAR X
ENCODING 88
SWIDTH 632 0
DWIDTH 12 0
BBX 12 13 0 0
BITMAP
3C70
1820
1840
0C80
0D00
0600
0600
0600
0B00
1300
2180
4180
E3C0
ENDCHAR
STARTCHAR Y
ENCODING 89
SWIDTH 591 0
DWIDTH 11 0
BBX 11 13 1 0
BITMAP
F0E0
6040
6080
3100
3200
3400
1800
1800
1800
3000
3000
3000
7800
ENDCHAR
STARTCHAR Z
ENCODING 90
SWIDTH 622 0
DWIDTH 11 0
BBX 11 13 0 0
BITMAP
3FE0
30E0
21C0
0180
0300
0600
0E00
0C00
1800
3000
7040
E0C0
FFC0
ENDCHAR
STARTCHAR bracketleft
ENCODING 91
SWIDTH 330 0
DWIDTH 6 0
BBX 6 16 1 -3
BITMAP
1C
10
10
30
20
20
20
60
40
40
40
C0
80
80
80
E0
ENDCHAR
STARTCHAR backslash
ENCODING 92
SWIDTH 390 0
DWIDTH 7 0
BBX 4 13 2 0
BITMAP
80
80
80
40
40
40
20
20
20
20
10
10
10
ENDCHAR
STARTCHAR bracketright
ENCODING 93
SWIDTH 330 0
DWIDTH 6 0
BBX 6 16 -1 -3
BITMAP
1C
04
04
0C
08
08
08
18
10
10
10
30
20
20
20
E0
ENDCHAR
STARTCHAR asciicircum
ENCODING 94
SWIDTH 570 0
DWIDTH 10 0
BBX 7 8 1 5
BITMAP
10
10
28
28
44
44
82
82
ENDCHAR
STARTCHAR underscore
ENCODING 95
SWIDTH 500 0
DWIDTH 9 0
BBX 9 1 0 -3
BITMAP
FF80
ENDCHAR
STARTCHAR quoteleft
ENCODING 96
SWIDTH 216 0
DWIDTH 5 0
BBX 3 5 2 8
BITMAP
20
40
40
C0
C0
ENDCHAR
STARTCHAR a
ENCODING 97
SWIDTH 561 0
DWIDTH 11 0
BBX 10 9 0 0
BITMAP
0F80
3180
6180
6300
C300
C300
C640
CE80
7300
ENDCHAR
STARTCHAR b
ENCODING 98
SWIDTH 559 0
DWIDTH 10 0
BBX 9 14 0 0
BITMAP
3800
1800
1800
3000
3000
3700
6980
7180
6180
6180
C300
C300
E600
D800
ENDCHAR
STARTCHAR c
ENCODING 99
SWIDTH 441 0
DWIDTH 8 0
BBX 8 9 0 0
BITMAP
0E
33
60
60
C0
C0
C2
C4
78
ENDCHAR
STARTCHAR d
ENCODING 100
SWIDTH 587 0
DWIDTH 11 0
BBX 10 14 0 0
BITMAP
01C0
00C0
00C0
00C0
0180
0F80
3180
6180
6300
C300
C300
C640
CE80
7300
ENDCHAR
STARTCHAR e
ENCODING 101
SWIDTH 453 0
DWIDTH 9 0
BBX 8 9 0 0
BITMAP
0E
33
63
66
CC
F0
C2
C4
78
ENDCHAR
STARTCHAR f
ENCODING 102
SWIDTH 315 0
DWIDTH 6 0
BBX 11 18 -3 -4
BITMAP
00C0
0160
0300
0300
0300
0FC0
0600
0600
0600
0C00
0C00
0C00
0C00
1800
1800
1800
D000
6000
ENDCHAR
STARTCHAR g
ENCODING 103
SWIDTH 499 0
DWIDTH 10 0
BBX 11 13 -1 -4
BITMAP
07E0
18C0
30C0
3080
3100
1E00
3000
3C00
6F00
C380
8180
C300
7E00
ENDCHAR
STARTCHAR h
ENCODING 104
SWIDTH 607 0
DWIDTH 12 0
BBX 11 14 0 0
BITMAP
3800
1800
1800
1800
3000
3380
34C0
68C0
7180
6180
6180
C320
C340
C380
ENDCHAR
STARTCHAR i
ENCODING 105
SWIDTH 317 0
DWIDTH 6 0
BBX 5 13 0 0
BITMAP
18
18
00
00
70
30
30
60
60
60
C8
D0
E0
ENDCHAR
STARTCHAR j
ENCODING 106
SWIDTH 309 0
DWIDTH 6 0
BBX 8 17 -3 -4
BITMAP
03
03
00
00
0E
06
06
06
0C
0C
0C
0C
18
18
18
D8
70
ENDCHAR
STARTCHAR k
ENCODING 107
SWIDTH 545 0
DWIDTH 10 0
BBX 10 14 0 0
BITMAP
3800
1800
1800
3000
3000
3180
3380
6400
6800
7C00
6C00
C600
C740
C380
ENDCHAR
STARTCHAR l
ENCODING 108
SWIDTH 306 0
DWIDTH 6 0
BBX 5 14 0 0
BITMAP
38
18
18
30
30
30
30
60
60
60
C0
C8
D0
E0
ENDCHAR
STARTCHAR m
ENCODING 109
SWIDTH 912 0
DWIDTH 18 0
BBX 17 9 0 0
BITMAP
738E00
34D300
38E300
71C600
618600
618600
C30C80
C30D00
C30E00
ENDCHAR
STARTCHAR n
ENCODING 110
SWIDTH 618 0
DWIDTH 12 0
BBX 11 9 0 0
BITMAP
7380
34C0
38C0
7180
6180
6180
C320
C340
C380
ENDCHAR
STARTCHAR o
ENCODING 111
SWIDTH 537 0
DWIDTH 10 0
BBX 9 9 0 0
BITMAP
0F00
3180
6180
6180
C180
C300
C300
C600
7800
ENDCHAR
STARTCHAR p
ENCODING 112
SWIDTH 590 0
DWIDTH 10 0
BBX 10 13 -1 -4
BITMAP
3B80
1CC0
18C0
30C0
30C0
3180
6180
7300
6C00
6000
C000
C000
C000
ENDCHAR
STARTCHAR q
ENCODING 113
SWIDTH 559 0
DWIDTH 10 0
BBX 9 14 0 -4
BITMAP
0080
0F80
3180
6180
6300
C300
C300
C600
CE00
7600
0600
0C00
0C00
0C00
ENDCHAR
STARTCHAR r
ENCODING 114
SWIDTH 402 0
DWIDTH 8 0
BBX 8 9 0 0
BITMAP
73
37
38
70
60
60
C0
C0
C0
ENDCHAR
STARTCHAR s
ENCODING 115
SWIDTH 389 0
DWIDTH 8 0
BBX 7 9 0 0
BITMAP
1C
26
60
70
38
1C
0C
C8
70
ENDCHAR
STARTCHAR t
ENCODING 116
SWIDTH 341 0
DWIDTH 6 0
BBX 6 11 0 0
BITMAP
10
30
FC
30
60
60
60
C0
C8
D0
E0
ENDCHAR
STARTCHAR u
ENCODING 117
SWIDTH 618 0
DWIDTH 12 0
BBX 11 9 0 0
BITMAP
70C0
30C0
30C0
6180
6180
6380
C720
CB40
7380
ENDCHAR
STARTCHAR v
ENCODING 118
SWIDTH 510 0
DWIDTH 10 0
BBX 8 9 1 0
BITMAP
E3
63
63
63
C2
C6
C4
C8
70
ENDCHAR
STARTCHAR w
ENCODING 119
SWIDTH 785 0
DWIDTH 15 0
BBX 13 9 1 0
BITMAP
E318
6318
6318
6318
C610
C630
C620
CE40
7380
ENDCHAR
STARTCHAR x
ENCODING 120
SWIDTH 516 0
DWIDTH 9 0
BBX 10 9 -1 0
BITMAP
38C0
1980
1A00
0C00
0C00
0C00
1640
6680
C700
ENDCHAR
STARTCHAR y
ENCODING 121
SWIDTH 468 0
DWIDTH 8 0
BBX 10 13 -2 -4
BITMAP
38C0
18C0
1880
1900
0D00
0E00
0E00
0C00
0C00
0800
1800
D000
6000
ENDCHAR
STARTCHAR z
ENCODING 122
SWIDTH 468 0
DWIDTH 10 0
BBX 9 9 0 0
BITMAP
3F80
3F00
4200
0400
0800
1000
3880
7D00
8E00
ENDCHAR
STARTCHAR braceleft
ENCODING 123
SWIDTH 340 0
DWIDTH 6 0
BBX 7 16 0 -3
BITMAP
06
08
08
18
10
10
20
C0
20
20
20
60
40
40
40
30
ENDCHAR
STARTCHAR bar
ENCODING 124
SWIDTH 270 0
DWIDTH 5 0
BBX 1 13 2 0
BITMAP
80
80
80
80
80
80
80
80
80
80
80
80
80
ENDCHAR
STARTCHAR braceright
ENCODING 125
SWIDTH 340 0
DWIDTH 6 0
BBX 7 16 -1 -3
BITMAP
18
04
04
0C
08
08
08
06
08
10
10
10
30
20
20
C0
ENDCHAR
STARTCHAR asciitilde
ENCODING 126
SWIDTH 570 0
DWIDTH 10 0
BBX 9 2 0 4
BITMAP
7980
CF00
ENDCHAR
STARTCHAR Aogonek
ENCODING 161
SWIDTH 624 0
DWIDTH 12 0
BBX 12 17 -1 -4
BITMAP
0180
0380
0380
0580
04C0
08C0
08C0
1FC0
10C0
2060
2060
4060
E0F0
0020
0040
0080
00E0
ENDCHAR
STARTCHAR breve
ENCODING 162
SWIDTH 473 0
DWIDTH 9 0
BBX 5 2 2 10
BITMAP
88
70
ENDCHAR
STARTCHAR Lslash
ENCODING 163
SWIDTH 571 0
DWIDTH 10 0
BBX 9 13 0 0
BITMAP
3C00
1800
1800
1800
3200
3400
3800
7000
A000
6000
6080
6180
FF80
ENDCHAR
STARTCHAR currency
ENCODING 164
SWIDTH 530 0
DWIDTH 10 0
BBX 8 8 1 3
BITMAP
BD
66
C3
81
81
C3
66
BD
ENDCHAR
STARTCHAR Lcaron
ENCODING 165
SWIDTH 565 0
DWIDTH 10 0
BBX 9 13 0 0
BITMAP
3D80
1980
1900
1900
3200
3000
3000
3000
6000
6000
6080
6180
FF80
ENDCHAR
STARTCHAR Sacute
ENCODING 166
SWIDTH 533 0
DWIDTH 10 0
BBX 10 14 0 0
BITMAP
0180
0300
0000
0F80
18C0
3040
3800
1C00
0F00
0380
8180
C180
E300
3E00
ENDCHAR
STARTCHAR section
ENCODING 167
SWIDTH 530 0
DWIDTH 10 0
BBX 8 15 1 -2
BITMAP
0E
13
21
30
78
9E
87
C3
E1
79
1E
0C
84
C8
70
ENDCHAR
STARTCHAR dieresis
ENCODING 168
SWIDTH 400 0
DWIDTH 7 0
BBX 5 2 1 10
BITMAP
D8
D8
ENDCHAR
STARTCHAR Scaron
ENCODING 169
SWIDTH 533 0
DWIDTH 10 0
BBX 10 14 0 0
BITMAP
0D00
0600
0000
0F80
18C0
3040
3800
1C00
0F00
0380
8180
C180
E300
3E00
ENDCHAR
STARTCHAR Scedilla
ENCODING 170
SWIDTH 533 0
DWIDTH 10 0
BBX 10 17 0 -4
BITMAP
0780
18C0
3040
3000
3800
1C00
0700
0380
0180
8180
C180
E300
3C00
0800
0C00
0400
1800
ENDCHAR
STARTCHAR Tcaron
ENCODING 171
SWIDTH 606 0
DWIDTH 13 0
BBX 12 14 1 0
BITMAP
0D00
0600
0000
FFF0
C630
8E10
0E00
0C00
0C00
1C00
1C00
1800
1800
3C00
ENDCHAR
STARTCHAR Zacute
ENCODING 172
SWIDTH 622 0
DWIDTH 11 0
BBX 11 14 0 0
BITMAP
0300
0600
0000
3FE0
30C0
2180
0300
0600
0C00
1800
3000
6040
C0C0
FFC0
ENDCHAR
STARTCHAR hyphen
ENCODING 173
SWIDTH 392 0
DWIDTH 7 0
BBX 5 1 1 4
BITMAP
F8
ENDCHAR
STARTCHAR Zcaron
ENCODING 174
SWIDTH 622 0
DWIDTH 11 0
BBX 11 14 0 0
BITMAP
0680
0300
0000
3FE0
30C0
2180
0300
0600
0C00
1800
3000
6040
C0C0
FFC0
ENDCHAR
STARTCHAR Zdotaccent
ENCODING 175
SWIDTH 622 0
DWIDTH 11 0
BBX 11 14 0 0
BITMAP
0600
0600
0000
3FE0
30C0
2180
0300
0600
0C00
1800
3000
6040
C0C0
FFC0
ENDCHAR
STARTCHAR degree
ENCODING 176
SWIDTH 400 0
DWIDTH 7 0
BBX 5 5 1 8
BITMAP
70
88
88
88
70
ENDCHAR
STARTCHAR aogonek
ENCODING 177
SWIDTH 561 0
DWIDTH 11 0
BBX 10 13 0 -4
BITMAP
0F80
3180
6180
6300
C300
C300
C640
CE80
7300
0100
0200
0400
0700
ENDCHAR
STARTCHAR ogonek
ENCODING 178
SWIDTH 473 0
DWIDTH 9 0
BBX 3 4 3 -4
BITMAP
20
40
80
E0
ENDCHAR
STARTCHAR lslash
ENCODING 179
SWIDTH 318 0
DWIDTH 6 0
BBX 6 14 0 0
BITMAP
38
18
18
18
34
38
30
60
E0
60
60
C8
D0
E0
ENDCHAR
STARTCHAR acute
ENCODING 180
SWIDTH 400 0
DWIDTH 7 0
BBX 3 2 2 10
BITMAP
60
C0
ENDCHAR
STARTCHAR lcaron
ENCODING 181
SWIDTH 255 0
DWIDTH 5 0
BBX 8 14 0 0
BITMAP
3B
1B
1A
32
34
30
30
60
60
60
C0
C8
D0
E0
ENDCHAR
STARTCHAR sacute
ENCODING 182
SWIDTH 389 0
DWIDTH 8 0
BBX 7 12 0 0
BITMAP
06
0C
00
1C
26
60
70
38
1C
0C
C8
70
ENDCHAR
STARTCHAR caron
ENCODING 183
SWIDTH 420 0
DWIDTH 8 0
BBX 4 2 2 10
BITMAP
D0
60
ENDCHAR
STARTCHAR cedilla
ENCODING 184
SWIDTH 473 0
DWIDTH 9 0
BBX 3 4 3 -4
BITMAP
40
60
20
C0
ENDCHAR
STARTCHAR scaron
ENCODING 185
SWIDTH 389 0
DWIDTH 8 0
BBX 7 12 0 0
BITMAP
34
18
00
1C
26
60
70
38
1C
0C
C8
70
ENDCHAR
STARTCHAR scedilla
ENCODING 186
SWIDTH 389 0
DWIDTH 8 0
BBX 7 13 0 -4
BITMAP
1C
26
60
70
38
1C
0C
C8
70
20
30
10
60
ENDCHAR
STARTCHAR tcaron
ENCODING 187
SWIDTH 341 0
DWIDTH 6 0
BBX 8 11 0 0
BITMAP
13
33
FE
32
64
60
60
C0
C8
D0
E0
ENDCHAR
STARTCHAR zacute
ENCODING 188
SWIDTH 468 0
DWIDTH 10 0
BBX 9 12 0 0
BITMAP
0300
0600
0000
3F80
3F00
4200
0400
0800
1000
3880
7D00
8E00
ENDCHAR
STARTCHAR hungarumlaut
ENCODING 189
SWIDTH 473 0
DWIDTH 9 0
BBX 5 3 2 10
BITMAP
48
D8
90
ENDCHAR
STARTCHAR zcaron
ENCODING 190
SWIDTH 468 0
DWIDTH 10 0
BBX 9 12 0 0
BITMAP
1A00
0C00
0000
3F80
3F00
4200
0400
0800
1000
3880
7D00
8E00
ENDCHAR
STARTCHAR zdotaccent
ENCODING 191
SWIDTH 468 0
DWIDTH 10 0
BBX 9 12 0 0
BITMAP
0600
0600
0000
3F80
3F00
4200
0400
0800
1000
3880
7D00
8E00
ENDCHAR
STARTCHAR Racute
ENCODING 192
SWIDTH 640 0
DWIDTH 12 0
BBX 11 14 0 0
BITMAP
0180
0300
0000
3FC0
18E0
3860
30E0
31C0
3F00
7B00
7380
6180
61C0
F1C0
ENDCHAR
STARTCHAR Aacute
ENCODING 193
SWIDTH 624 0
DWIDTH 12 0
BBX 12 14 -1 0
BITMAP
00C0
0180
0000
0180
0380
0380
04C0
08C0
08C0
1FC0
2060
2060
4060
E0F0
ENDCHAR
STARTCHAR Acircumflex
ENCODING 194
SWIDTH 624 0
DWIDTH 12 0
BBX 12 14 -1 0
BITMAP
0180
02C0
0000
0180
0380
0380
04C0
08C0
08C0
1FC0
2060
2060
4060
E0F0
ENDCHAR
STARTCHAR Abreve
ENCODING 195
SWIDTH 624 0
DWIDTH 12 0
BBX 12 14 -1 0
BITMAP
0440
0380
0000
0180
0380
0380
04C0
08C0
08C0
1FC0
2060
2060
4060
E0F0
ENDCHAR
STARTCHAR Adieresis
ENCODING 196
SWIDTH 624 0
DWIDTH 12 0
BBX 12 14 -1 0
BITMAP
06C0
06C0
0000
0180
0380
0380
04C0
08C0
08C0
1FC0
2060
2060
4060
E0F0
ENDCHAR
STARTCHAR Lacute
ENCODING 197
SWIDTH 565 0
DWIDTH 10 0
BBX 9 14 0 0
BITMAP
0600
0C00
0000
3C00
1800
1800
3800
3000
3000
7000
6000
6080
6180
FF80
ENDCHAR
STARTCHAR Cacute
ENCODING 198
SWIDTH 661 0
DWIDTH 13 0
BBX 11 14 1 0
BITMAP
0180
0300
0000
0FE0
3860
7020
6000
E000
C000
C000
C040
C0C0
6180
3F00
ENDCHAR
STARTCHAR Ccedilla
ENCODING 199
SWIDTH 661 0
DWIDTH 13 0
BBX 11 17 1 -4
BITMAP
07C0
1860
3020
6000
6000
C000
C000
C000
C000
C040
C0C0
6180
3E00
1000
1800
0800
3000
ENDCHAR
STARTCHAR Ccaron
ENCODING 200
SWIDTH 661 0
DWIDTH 13 0
BBX 11 14 1 0
BITMAP
0680
0300
0000
0FE0
3860
7020
6000
E000
C000
C000
C040
C0C0
6180
3F00
ENDCHAR
STARTCHAR Eacute
ENCODING 201
SWIDTH 596 0
DWIDTH 11 0
BBX 11 14 0 0
BITMAP
0180
0300
0000
3FE0
1860
1820
3000
3080
3F80
3080
6000
6080
6180
FF80
ENDCHAR
STARTCHAR Eogonek
ENCODING 202
SWIDTH 596 0
DWIDTH 11 0
BBX 11 17 0 -4
BITMAP
3FE0
1860
1820
1800
3000
3080
3F80
3080
6000
6000
6080
6180
FF80
0100
0200
0400
0700
ENDCHAR
STARTCHAR Edieresis
ENCODING 203
SWIDTH 596 0
DWIDTH 11 0
BBX 11 14 0 0
BITMAP
0D80
0D80
0000
3FE0
1860
1820
3000
3080
3F80
3080
6000
6080
6180
FF80
ENDCHAR
STARTCHAR Ecaron
ENCODING 204
SWIDTH 596 0
DWIDTH 11 0
BBX 11 14 0 0
BITMAP
0D00
0600
0000
3FE0
1860
1820
3000
3080
3F80
3080
6000
6080
6180
FF80
ENDCHAR
STARTCHAR Iacute
ENCODING 205
SWIDTH 345 0
DWIDTH 6 0
BBX 7 14 0 0
BITMAP
06
0C
00
3C
18
18
30
30
30
30
60
60
60
F0
ENDCHAR
STARTCHAR Icircumflex
ENCODING 206
SWIDTH 345 0
DWIDTH 6 0
BBX 6 14 0 0
BITMAP
18
2C
00
3C
18
18
30
30
30
30
60
60
60
F0
ENDCHAR
STARTCHAR Dcaron
ENCODING 207
SWIDTH 763 0
DWIDTH 14 0
BBX 13 14 0 0
BITMAP
0680
0300
0000
3FE0
1838
1818
3818
3018
3018
7038
6030
6070
60E0
FF80
ENDCHAR
STARTCHAR Eth
ENCODING 208
SWIDTH 770 0
DWIDTH 14 0
BBX 13 13 0 0
BITMAP
3FE0
1830
1818
1818
3018
3018
7C18
3018
6030
6030
6060
60C0
FF00
ENDCHAR
STARTCHAR Nacute
ENCODING 209
SWIDTH 763 0
DWIDTH 14 0
BBX 14 14 0 0
BITMAP
0060
00C0
0000
381C
1C08
3E18
3618
2710
2310
2390
61D0
61F0
40E0
E0E0
ENDCHAR
STARTCHAR Ncaron
ENCODING 210
SWIDTH 763 0
DWIDTH 14 0
BBX 14 14 0 0
BITMAP
01A0
00C0
0000
381C
1C08
3E18
3618
2710
2310
2390
61D0
61F0
40E0
E0E0
ENDCHAR
STARTCHAR Oacute
ENCODING 211
SWIDTH 753 0
DWIDTH 14 0
BBX 12 14 1 0
BITMAP
00C0
0180
0000
07C0
1860
3030
6030
6030
C030
C060
C060
C0C0
6180
3E00
ENDCHAR
STARTCHAR Ocircumflex
ENCODING 212
SWIDTH 753 0
DWIDTH 14 0
BBX 12 14 1 0
BITMAP
0300
0580
0000
07C0
1860
3030
6030
6030
C030
C060
C060
C0C0
6180
3E00
ENDCHAR
STARTCHAR Ohungarumlaut
ENCODING 213
SWIDTH 753 0
DWIDTH 14 0
BBX 12 14 1 0
BITMAP
0240
06C0
0480
07C0
1860
3030
6030
6030
C030
C060
C060
C0C0
6180
3E00
ENDCHAR
STARTCHAR Odieresis
ENCODING 214
SWIDTH 753 0
DWIDTH 14 0
BBX 12 14 1 0
BITMAP
06C0
06C0
0000
07C0
1860
3030
6030
6030
C030
C060
C060
C0C0
6180
3E00
ENDCHAR
STARTCHAR multiply
ENCODING 215
SWIDTH 570 0
DWIDTH 10 0
BBX 7 7 1 1
BITMAP
82
44
28
10
28
44
82
ENDCHAR
STARTCHAR Rcaron
ENCODING 216
SWIDTH 640 0
DWIDTH 12 0
BBX 11 14 0 0
BITMAP
0680
0300
0000
3FC0
18E0
3860
30E0
31C0
3F00
7B00
7380
6180
61C0
F1C0
ENDCHAR
STARTCHAR Uring
ENCODING 217
SWIDTH 794 0
DWIDTH 14 0
BBX 13 14 1 0
BITMAP
0300
0480
0300
7878
3030
3030
6060
6060
6060
C0C0
C0C0
C0C0
6180
3E00
ENDCHAR
STARTCHAR Uacute
ENCODING 218
SWIDTH 794 0
DWIDTH 14 0
BBX 13 14 1 0
BITMAP
0180
0300
0000
7878
3030
3030
6060
6060
6060
C0C0
C0C0
C0C0
6180
3E00
ENDCHAR
STARTCHAR Uhungarumlaut
ENCODING 219
SWIDTH 794 0
DWIDTH 14 0
BBX 13 14 1 0
BITMAP
0240
06C0
0480
7878
3030
3030
6060
6060
6060
C0C0
C0C0
C0C0
6180
3E00
ENDCHAR
STARTCHAR Udieresis
ENCODING 220
SWIDTH 794 0
DWIDTH 14 0
BBX 13 14 1 0
BITMAP
06C0
06C0
0000
7878
3030
3030
6060
6060
6060
C0C0
C0C0
C0C0
6180
3E00
ENDCHAR
STARTCHAR Yacute
ENCODING 221
SWIDTH 591 0
DWIDTH 11 0
BBX 11 14 1 0
BITMAP
0300
0600
0000
F0E0
6040
6080
3100
3200
3400
1800
1800
3000
3000
7800
ENDCHAR
STARTCHAR Tcedilla
ENCODING 222
SWIDTH 606 0
DWIDTH 13 0
BBX 12 17 1 -4
BITMAP
FFF0
C630
8610
0600
0C00
0C00
0C00
0C00
1800
1800
1800
1800
3C00
1000
1800
0800
3000
ENDCHAR
STARTCHAR germandbls
ENCODING 223
SWIDTH 577 0
DWIDTH 11 0
BBX 13 18 -3 -4
BITMAP
00F0
0118
0308
0308
0318
0E20
0640
0660
0670
0C38
0C18
0C08
0D90
18E0
1800
1800
D000
6000
ENDCHAR
STARTCHAR racute
ENCODING 224
SWIDTH 402 0
DWIDTH 8 0
BBX 8 12 0 0
BITMAP
06
0C
00
73
37
38
70
60
60
C0
C0
C0
ENDCHAR
STARTCHAR aacute
ENCODING 225
SWIDTH 561 0
DWIDTH 11 0
BBX 10 12 0 0
BITMAP
0300
0600
0000
0F80
3180
6180
6300
C300
C300
C640
CE80
7300
ENDCHAR
STARTCHAR acircumflex
ENCODING 226
SWIDTH 561 0
DWIDTH 11 0
BBX 10 12 0 0
BITMAP
0600
0B00
0000
0F80
3180
6180
6300
C300
C300
C640
CE80
7300
ENDCHAR
STARTCHAR abreve
ENCODING 227
SWIDTH 561 0
DWIDTH 11 0
BBX 10 12 0 0
BITMAP
0880
0700
0000
0F80
3180
6180
6300
C300
C300
C640
CE80
7300
ENDCHAR
STARTCHAR adieresis
ENCODING 228
SWIDTH 561 0
DWIDTH 11 0
BBX 10 12 0 0
BITMAP
0D80
0D80
0000
0F80
3180
6180
6300
C300
C300
C640
CE80
7300
ENDCHAR
STARTCHAR lacute
ENCODING 229
SWIDTH 306 0
DWIDTH 6 0
BBX 6 14 0 0
BITMAP
0C
18
00
38
18
38
30
30
70
60
E0
C8
D8
70
ENDCHAR
STARTCHAR cacute
ENCODING 230
SWIDTH 441 0
DWIDTH 8 0
BBX 8 12 0 0
BITMAP
03
06
00
0E
33
60
60
C0
C0
C2
C4
78
ENDCHAR
STARTCHAR ccedilla
ENCODING 231
SWIDTH 441 0
DWIDTH 8 0
BBX 8 13 0 -4
BITMAP
0E
33
60
60
C0
C0
C2
C4
78
20
30
10
60
ENDCHAR
STARTCHAR ccaron
ENCODING 232
SWIDTH 441 0
DWIDTH 8 0
BBX 8 12 0 0
BITMAP
0D
06
00
0E
33
60
60
C0
C0
C2
C4
78
ENDCHAR
STARTCHAR eacute
ENCODING 233
SWIDTH 453 0
DWIDTH 9 0
BBX 8 12 0 0
BITMAP
06
0C
00
0E
33
63
66
CC
F0
C2
C4
78
ENDCHAR
STARTCHAR eogonek
ENCODING 234
SWIDTH 453 0
DWIDTH 9 0
BBX 8 13 0 -4
BITMAP
0E
33
63
66
CC
F0
C2
C4
78
10
20
40
70
ENDCHAR
STARTCHAR edieresis
ENCODING 235
SWIDTH 453 0
DWIDTH 9 0
BBX 8 12 0 0
BITMAP
1B
1B
00
0E
33
63
66
CC
F0
C2
C4
78
ENDCHAR
STARTCHAR ecaron
ENCODING 236
SWIDTH 453 0
DWIDTH 9 0
BBX 8 12 0 0
BITMAP
0D
06
00
0E
33
63
66
CC
F0
C2
C4
78
ENDCHAR
STARTCHAR iacute
ENCODING 237
SWIDTH 317 0
DWIDTH 6 0
BBX 5 12 0 0
BITMAP
18
30
00
70
30
30
60
60
60
C8
D0
E0
ENDCHAR
STARTCHAR icircumflex
ENCODING 238
SWIDTH 317 0
DWIDTH 6 0
BBX 5 12 0 0
BITMAP
30
58
00
70
30
30
60
60
60
C8
D0
E0
ENDCHAR
STARTCHAR dcaron
ENCODING 239
SWIDTH 533 0
DWIDTH 10 0
BBX 13 14 0 0
BITMAP
01D8
00D8
00D0
00D0
01A0
0F80
3180
6180
6300
C300
C300
C640
CE80
7300
ENDCHAR
STARTCHAR dmacron
ENCODING 240
SWIDTH 587 0
DWIDTH 11 0
BBX 12 14 0 0
BITMAP
01C0
00C0
0FF0
00C0
0180
0F80
3180
6180
6300
C300
C300
C640
CE80
7300
ENDCHAR
STARTCHAR nacute
ENCODING 241
SWIDTH 618 0
DWIDTH 12 0
BBX 11 12 0 0
BITMAP
0180
0300
0000
7380
34C0
38C0
7180
6180
6180
C320
C340
C380
ENDCHAR
STARTCHAR ncaron
ENCODING 242
SWIDTH 618 0
DWIDTH 12 0
BBX 11 12 0 0
BITMAP
0680
0300
0000
7380
34C0
38C0
7180
6180
6180
C320
C340
C380
ENDCHAR
STARTCHAR oacute
ENCODING 243
SWIDTH 537 0
DWIDTH 10 0
BBX 9 12 0 0
BITMAP
0300
0600
0000
0F00
3180
6180
6180
C180
C300
C300
C600
7800
ENDCHAR
STARTCHAR ocircumflex
ENCODING 244
SWIDTH 537 0
DWIDTH 10 0
BBX 9 12 0 0
BITMAP
0600
0B00
0000
0F00
3180
6180
6180
C180
C300
C300
C600
7800
ENDCHAR
STARTCHAR ohungarumlaut
ENCODING 245
SWIDTH 537 0
DWIDTH 10 0
BBX 9 12 0 0
BITMAP
0480
0D80
0900
0F00
3180
6180
6180
C180
C300
C300
C600
7800
ENDCHAR
STARTCHAR odieresis
ENCODING 246
SWIDTH 537 0
DWIDTH 10 0
BBX 9 12 0 0
BITMAP
1B00
1B00
0000
0F00
3180
6180
6180
C180
C300
C300
C600
7800
ENDCHAR
STARTCHAR divide
ENCODING 247
SWIDTH 570 0
DWIDTH 10 0
BBX 9 7 0 1
BITMAP
0800
0800
0000
FF80
0000
0800
0800
ENDCHAR
STARTCHAR rcaron
ENCODING 248
SWIDTH 402 0
DWIDTH 8 0
BBX 8 12 0 0
BITMAP
1A
0C
00
73
37
38
70
60
60
C0
C0
C0
ENDCHAR
STARTCHAR uring
ENCODING 249
SWIDTH 618 0
DWIDTH 12 0
BBX 11 13 0 0
BITMAP
0600
0900
0600
0000
70C0
30C0
30C0
6180
6180
6380
C720
CB40
7380
ENDCHAR
STARTCHAR uacute
ENCODING 250
SWIDTH 618 0
DWIDTH 12 0
BBX 11 12 0 0
BITMAP
0300
0600
0000
70C0
30C0
30C0
6180
6180
6380
C720
CB40
7380
ENDCHAR
STARTCHAR uhungarumlaut
ENCODING 251
SWIDTH 618 0
DWIDTH 12 0
BBX 11 12 0 0
BITMAP
0480
0D80
0900
70C0
30C0
30C0
6180
6180
6380
C720
CB40
7380
ENDCHAR
STARTCHAR udieresis
ENCODING 252
SWIDTH 618 0
DWIDTH 12 0
BBX 11 12 0 0
BITMAP
1B00
1B00
0000
70C0
30C0
30C0
6180
6180
6380
C720
CB40
7380
ENDCHAR
STARTCHAR yacute
ENCODING 253
SWIDTH 468 0
DWIDTH 8 0
BBX 10 16 -2 -4
BITMAP
0180
0300
0000
38C0
18C0
1880
1900
0D00
0E00
0E00
0C00
0C00
0800
1800
D000
6000
ENDCHAR
STARTCHAR tcedilla
ENCODING 254
SWIDTH 341 0
DWIDTH 6 0
BBX 6 15 0 -4
BITMAP
10
30
FC
30
60
60
60
C0
C8
D0
E0
40
60
20
C0
ENDCHAR
STARTCHAR dotaccent
ENCODING 255
SWIDTH 420 0
DWIDTH 8 0
BBX 2 2 3 10
BITMAP
C0
C0
ENDCHAR
ENDFONT
